<?xml version="1.0" encoding="UTF-8" standalone="no"?>
<svg
   xmlns:dc="http://purl.org/dc/elements/1.1/"
   xmlns:cc="http://creativecommons.org/ns#"
   xmlns:rdf="http://www.w3.org/1999/02/22-rdf-syntax-ns#"
   xmlns:svg="http://www.w3.org/2000/svg"
   xmlns="http://www.w3.org/2000/svg"
   xmlns:sodipodi="http://sodipodi.sourceforge.net/DTD/sodipodi-0.dtd"
   xmlns:inkscape="http://www.inkscape.org/namespaces/inkscape"
   inkscape:export-ydpi="576"
   inkscape:export-xdpi="576"
   inkscape:export-filename="D:\Project Real\DESEMBER\export extended line\png\02 - Bus.png"
   width="64pt"
   height="64pt"
   viewBox="0 0 22.577778 22.577778"
   version="1.1"
   id="svg831"
   inkscape:version="1.0 (4035a4fb49, 2020-05-01)"
   sodipodi:docname="03 - School Bag.svg">
  <defs
     id="defs825">
    <pattern
       id="EMFhbasepattern"
       patternUnits="userSpaceOnUse"
       width="6"
       height="6"
       x="0"
       y="0" />
    <pattern
       id="EMFhbasepattern-9"
       patternUnits="userSpaceOnUse"
       width="6"
       height="6"
       x="0"
       y="0" />
    <pattern
       id="EMFhbasepattern-0"
       patternUnits="userSpaceOnUse"
       width="6"
       height="6"
       x="0"
       y="0" />
    <pattern
       id="EMFhbasepattern-7"
       patternUnits="userSpaceOnUse"
       width="6"
       height="6"
       x="0"
       y="0" />
    <pattern
       id="EMFhbasepattern-2"
       patternUnits="userSpaceOnUse"
       width="6"
       height="6"
       x="0"
       y="0" />
    <pattern
       id="EMFhbasepattern-98"
       patternUnits="userSpaceOnUse"
       width="6"
       height="6"
       x="0"
       y="0" />
    <pattern
       id="EMFhbasepattern-6"
       patternUnits="userSpaceOnUse"
       width="6"
       height="6"
       x="0"
       y="0" />
    <pattern
       id="EMFhbasepattern-01"
       patternUnits="userSpaceOnUse"
       width="6"
       height="6"
       x="0"
       y="0" />
    <pattern
       id="EMFhbasepattern-07"
       patternUnits="userSpaceOnUse"
       width="6"
       height="6"
       x="0"
       y="0" />
    <pattern
       id="EMFhbasepattern-8"
       patternUnits="userSpaceOnUse"
       width="6"
       height="6"
       x="0"
       y="0" />
    <pattern
       id="EMFhbasepattern-4"
       patternUnits="userSpaceOnUse"
       width="6"
       height="6"
       x="0"
       y="0" />
    <pattern
       id="EMFhbasepattern-40"
       patternUnits="userSpaceOnUse"
       width="6"
       height="6"
       x="0"
       y="0" />
    <pattern
       id="EMFhbasepattern-08"
       patternUnits="userSpaceOnUse"
       width="6"
       height="6"
       x="0"
       y="0" />
    <pattern
       id="EMFhbasepattern-04"
       patternUnits="userSpaceOnUse"
       width="6"
       height="6"
       x="0"
       y="0" />
    <pattern
       id="EMFhbasepattern-014"
       patternUnits="userSpaceOnUse"
       width="6"
       height="6"
       x="0"
       y="0" />
    <pattern
       id="EMFhbasepattern-27"
       patternUnits="userSpaceOnUse"
       width="6"
       height="6"
       x="0"
       y="0" />
    <pattern
       id="EMFhbasepattern-09"
       patternUnits="userSpaceOnUse"
       width="6"
       height="6"
       x="0"
       y="0" />
    <pattern
       id="EMFhbasepattern-5"
       patternUnits="userSpaceOnUse"
       width="6"
       height="6"
       x="0"
       y="0" />
    <pattern
       id="EMFhbasepattern-018"
       patternUnits="userSpaceOnUse"
       width="6"
       height="6"
       x="0"
       y="0" />
  </defs>
  <sodipodi:namedview
     id="base"
     pagecolor="#ffffff"
     bordercolor="#666666"
     borderopacity="1.0"
     inkscape:pageopacity="0.0"
     inkscape:pageshadow="2"
     inkscape:zoom="6.2578125"
     inkscape:cx="42.666667"
     inkscape:cy="42.666667"
     inkscape:document-units="pt"
     inkscape:current-layer="layer1"
     showgrid="false"
     units="pt"
     inkscape:window-width="1366"
     inkscape:window-height="706"
     inkscape:window-x="-8"
     inkscape:window-y="-8"
     inkscape:window-maximized="1"
     inkscape:pagecheckerboard="true"
     inkscape:showpageshadow="false"
     inkscape:object-paths="true"
     inkscape:snap-intersection-paths="true"
     inkscape:snap-smooth-nodes="true"
     inkscape:snap-midpoints="true"
     showguides="true"
     inkscape:snap-bbox="true"
     inkscape:bbox-nodes="true"
     inkscape:snap-nodes="false"
     inkscape:snap-global="true"
     inkscape:document-rotation="0">
    <inkscape:grid
       type="xygrid"
       id="grid1378" />
    <sodipodi:guide
       position="0.97013831,21.607643"
       orientation="78.000048,0"
       id="guide1380"
       inkscape:locked="false" />
    <sodipodi:guide
       position="0.97013831,0.97013129"
       orientation="0,78.000005"
       id="guide1382"
       inkscape:locked="false" />
    <sodipodi:guide
       position="21.607639,0.97013129"
       orientation="-78.000048,0"
       id="guide1384"
       inkscape:locked="false" />
    <sodipodi:guide
       position="21.607639,21.607643"
       orientation="0,-78.000005"
       id="guide1386"
       inkscape:locked="false" />
  </sodipodi:namedview>
  <metadata
     id="metadata828">
    <rdf:RDF>
      <cc:Work
         rdf:about="">
        <dc:format>image/svg+xml</dc:format>
        <dc:type
           rdf:resource="http://purl.org/dc/dcmitype/StillImage" />
        <dc:title></dc:title>
      </cc:Work>
    </rdf:RDF>
  </metadata>
  <g
     inkscape:label="Icon"
     inkscape:groupmode="layer"
     id="layer1"
     transform="translate(0,-274.42223)">
    <path
       id="path1685"
       style="color:#000000;font-style:normal;font-variant:normal;font-weight:normal;font-stretch:normal;font-size:medium;line-height:normal;font-family:sans-serif;font-variant-ligatures:normal;font-variant-position:normal;font-variant-caps:normal;font-variant-numeric:normal;font-variant-alternates:normal;font-variant-east-asian:normal;font-feature-settings:normal;font-variation-settings:normal;text-indent:0;text-align:start;text-decoration:none;text-decoration-line:none;text-decoration-style:solid;text-decoration-color:#000000;letter-spacing:normal;word-spacing:normal;text-transform:none;writing-mode:lr-tb;direction:ltr;text-orientation:mixed;dominant-baseline:auto;baseline-shift:baseline;text-anchor:start;white-space:normal;shape-padding:0;shape-margin:0;inline-size:0;clip-rule:nonzero;display:inline;overflow:visible;visibility:visible;isolation:auto;mix-blend-mode:normal;color-interpolation:sRGB;color-interpolation-filters:linearRGB;solid-color:#000000;solid-opacity:1;vector-effect:none;fill:#000000;fill-opacity:1;fill-rule:nonzero;stroke:none;stroke-width:0.529167;stroke-linecap:round;stroke-linejoin:round;stroke-miterlimit:1.5;stroke-dasharray:none;stroke-dashoffset:0;stroke-opacity:1;color-rendering:auto;image-rendering:auto;shape-rendering:auto;text-rendering:auto;enable-background:accumulate;stop-color:#000000"
       d="m 4.1646561,275.39237 a 0.35585021,0.35585021 0 0 0 -0.3551206,0.33358 c -0.047458,0.76312 -0.039567,1.48027 0.013206,2.16198 h -0.013206 l 0.1285666,9.12192 h 0.00971 c -1.602e-4,0.0202 -0.00143,0.0403 -0.00143,0.0605 v 0.42045 H 2.6405819 c -0.7818274,-6e-5 -1.4232576,0.64136 -1.4232576,1.4232 v 0.71163 c 0,0.78744 0.3684849,1.50385 0.9374891,2.01466 l 3.2044141,2.8764 0.036138,-0.041 c 0.2328086,0.20716 0.4880535,0.39032 0.7651397,0.54762 1.3510142,0.767 3.1415417,0.99715 5.0925928,1.00629 1.95105,0.009 3.75109,-0.20232 5.114138,-0.95625 0.300078,-0.16597 0.575522,-0.36237 0.824905,-0.58653 l 0.02641,0.0299 3.204414,-2.8764 c 0.569011,-0.5108 0.937488,-1.22722 0.937488,-2.01466 v -0.71164 c 0,-0.78183 -0.64143,-1.42325 -1.423257,-1.42325 h -1.305813 v -0.4809 -0.005 a 0.35585021,0.35585021 0 0 0 0,-0.003 l 0.128564,-9.11358 h -0.01251 c 0.05277,-0.68171 0.05996,-1.39887 0.01251,-2.16198 a 0.35585021,0.35585021 0 0 0 -0.354425,-0.33358 h -1.423257 a 0.35585021,0.35585021 0 0 0 -0.35512,0.34678 c -0.02936,1.16973 -0.08927,2.27862 -0.2752,3.17314 -0.156448,0.75267 -0.403336,1.3342 -0.756801,1.70472 -0.129021,-0.10907 -0.257391,-0.21894 -0.392647,-0.31899 -0.01603,-1.33243 -0.440101,-2.54176 -1.133462,-3.43236 -0.69994,-0.89903 -1.692755,-1.47905 -2.797173,-1.47329 -1.104422,0.005 -2.0927113,0.59382 -2.7867504,1.4997 -0.6789543,0.88619 -1.0900822,2.08315 -1.1077502,3.39623 -0.1390989,0.1026 -0.2712911,0.21506 -0.4037658,0.32731 -0.3529152,-0.37058 -0.5991142,-0.95137 -0.7554108,-1.70332 -0.1859297,-0.89452 -0.243758,-2.00341 -0.2731156,-3.17314 a 0.35585021,0.35585021 0 0 0 -0.3572041,-0.34678 z m 0.3780528,0.71163 h 0.7220506 c 0.032664,1.04833 0.075838,2.0773 0.2578274,2.95284 0.1692047,0.81405 0.5406187,1.43312 1.0271361,1.93752 -0.3057242,0.29877 -0.5863767,0.6251 -0.845754,0.97015 -0.8142094,-1.65886 -1.2559708,-3.51388 -1.1612601,-5.86051 z m 6.7340641,0 c 0.855097,-0.004 1.640473,0.43718 2.232875,1.19809 0.504459,0.64794 0.854727,1.5248 0.952775,2.51156 -0.223982,-0.12722 -0.454601,-0.24206 -0.690779,-0.34331 -0.08702,-1.46069 -1.147239,-2.66209 -2.494871,-2.65472 -1.3384638,0.008 -2.3826948,1.20245 -2.4705471,2.65054 -0.2357023,0.10059 -0.4652118,0.21469 -0.6886956,0.34123 0.097948,-0.97078 0.4385182,-1.83765 0.9319282,-2.48167 0.5880139,-0.7675 1.3722175,-1.21726 2.2273145,-1.22172 z m 6.027996,0 h 0.722748 c 0.09463,2.34523 -0.346566,4.19961 -1.159871,5.85773 -0.259678,-0.3443 -0.543452,-0.66712 -0.84923,-0.96528 0.487522,-0.50478 0.85978,-1.12443 1.029222,-1.93961 0.181984,-0.87554 0.224471,-1.90451 0.257131,-2.95284 z m -6.025216,1.42395 c 0.832369,-0.005 1.570388,0.69351 1.748494,1.67621 -0.567549,-0.16588 -1.161879,-0.25583 -1.774902,-0.25295 -0.587784,0.003 -1.156241,0.0923 -1.7012378,0.25018 0.177444,-0.9726 0.9019158,-1.66892 1.7276458,-1.67344 z m -0.02084,2.13559 c 3.606399,-0.017 6.626859,3.68889 6.661095,7.34352 v 3.94246 c -0.01788,1.82452 -0.721029,2.85097 -1.896518,3.50116 -1.176158,0.65056 -2.869636,0.87617 -4.764577,0.8673 -1.8949418,-0.009 -3.5818913,-0.25061 -4.7465094,-0.91178 -1.1646164,-0.66118 -1.8541296,-1.69207 -1.8541296,-3.51922 v -3.81667 c -3.5e-6,-3.65433 2.9942349,-7.38987 6.600639,-7.40677 z m -0.0077,1.06604 c -1.5574785,0.028 -2.8396896,0.62264 -3.7798331,1.62063 -0.9401435,0.998 -1.5457774,2.38309 -1.8464823,3.99526 a 0.35581463,0.35581463 0 0 0 0.2835397,0.41489 0.35581463,0.35581463 0 0 0 0.4148849,-0.28631 c 0.2825059,-1.51459 0.8469728,-2.76609 1.6657954,-3.63529 0.8177078,-0.86802 1.8851496,-1.37137 3.2697394,-1.39754 1.348913,0.0107 2.428621,0.49922 3.267655,1.36349 0.840196,0.86546 1.432826,2.12371 1.72556,3.66377 a 0.35581463,0.35581463 0 0 0 0.417666,0.28424 0.35581463,0.35581463 0 0 0 0.28076,-0.41767 c -0.312387,-1.64345 -0.952071,-3.03298 -1.914588,-4.02445 -0.962517,-0.99147 -2.252545,-1.56963 -3.777053,-1.58102 a 0.35585021,0.35585021 0 0 0 -0.0077,0 z m -6.6812481,0.57057 c 0.1828602,0.48156 0.399053,0.94253 0.6379646,1.39128 -0.2311015,0.38151 -0.4293827,0.78325 -0.6011343,1.19601 z m 13.4306031,7e-4 -0.03683,2.57271 c -0.171635,-0.409 -0.369036,-0.80744 -0.599047,-1.18558 0.238034,-0.44746 0.453556,-0.90705 0.63588,-1.38713 z m -9.9148521,4.05434 a 0.35581463,0.35581463 0 0 0 -0.3544247,0.3572 0.35581463,0.35581463 0 0 0 0.3544247,0.35442 h 5.4400611 v 1.06676 c -7.83e-4,0.19761 0.159595,0.35798 0.357204,0.3572 0.196583,-6.8e-4 0.355204,-0.16062 0.354425,-0.3572 v -1.06676 h 0.255046 a 0.35581463,0.35581463 0 0 0 0.354425,-0.35442 0.35581463,0.35581463 0 0 0 -0.354425,-0.3572 z m -5.444934,2.84721 H 3.946418 v 0.71163 H 3.1055531 c -0.1965768,-7.8e-4 -0.3565261,0.15784 -0.3572021,0.35443 -7.117e-4,0.1976 0.1595935,0.35797 0.3572021,0.35719 h 0.8408891 v 0.71233 H 3.4606737 c -0.1955591,6.8e-4 -0.3544517,0.15887 -0.3551206,0.35443 -7.117e-4,0.19657 0.1585438,0.35652 0.3551206,0.35719 h 0.4899386 c 0.012453,0.52445 0.084275,1.00225 0.2091797,1.43508 l -1.5295821,-1.37183 c -0.4376268,-0.39287 -0.701207,-0.92191 -0.701207,-1.4872 v -0.71162 c 0,-0.39724 0.3143905,-0.71163 0.7116289,-0.71163 z m 15.9907991,0 h 1.305812 c 0.397238,0 0.711628,0.31439 0.711628,0.71163 v 0.71162 c 0,0.56529 -0.263583,1.09434 -0.701204,1.4872 l -1.525416,1.36766 c 0.122633,-0.43209 0.193576,-0.90816 0.205706,-1.43091 h 0.489245 c 0.196578,-6.7e-4 0.355891,-0.16062 0.355119,-0.35719 -6.75e-4,-0.19556 -0.159561,-0.35375 -0.355119,-0.35443 h -0.485747 v -0.71233 h 0.84089 c 0.197609,8e-4 0.357987,-0.15959 0.357204,-0.35719 -6.76e-4,-0.19659 -0.160625,-0.35521 -0.357204,-0.35443 h -0.84089 z m -11.6119185,0.35442 a 0.35585021,0.35585021 0 0 0 -0.3572043,0.35721 v 1.88052 c -1.4e-6,1.56786 1.27934,2.8472 2.8472102,2.8472 h 3.5588396 c 1.567868,0 2.847209,-1.27934 2.847209,-2.8472 v -1.88054 a 0.35585021,0.35585021 0 0 0 -0.357204,-0.3572 z m 0.69217,0.71164 h 7.1364415 c -1.205131,1.4518 -2.433855,2.13564 -3.6054,2.13557 -1.173198,-5e-5 -2.3750745,-0.68244 -3.5310415,-2.13557 z m 7.4922555,0.67757 v 0.84852 c 0,1.18327 -0.952303,2.13558 -2.13558,2.13558 H 9.5095226 c -1.1832772,0 -2.1355817,-0.95231 -2.1355814,-2.13558 v -0.82074 c 1.1913097,1.39465 2.5055984,2.14176 3.8687868,2.14184 1.374782,7e-5 2.718091,-0.75444 3.961214,-2.16964 z m -4.625587,0.0347 a 0.35581463,0.35581463 0 0 0 -0.357204,0.35721 0.35581463,0.35581463 0 0 0 0.357204,0.35443 h 1.421173 a 0.35581463,0.35581463 0 0 0 0.357205,-0.35443 0.35581463,0.35581463 0 0 0 -0.357205,-0.35721 z" />
  </g>
</svg>
