<?xml version="1.0" encoding="iso-8859-1"?>
<!-- Generator: Adobe Illustrator 16.0.0, SVG Export Plug-In . SVG Version: 6.00 Build 0)  -->
<!DOCTYPE svg PUBLIC "-//W3C//DTD SVG 1.1//EN" "http://www.w3.org/Graphics/SVG/1.1/DTD/svg11.dtd">
<svg version="1.1" id="Capa_1" xmlns="http://www.w3.org/2000/svg" xmlns:xlink="http://www.w3.org/1999/xlink" x="0px" y="0px"
	 width="478.125px" height="478.125px" viewBox="0 0 478.125 478.125" style="enable-background:new 0 0 478.125 478.125;"
	 xml:space="preserve">
<g>
	<path d="M436.05,125.269c-43.987,0-38.25,38.25-95.625,38.25s-47.812-38.25-76.5-38.25c-21.037,0-42.075,7.65-59.288,19.125
		l-9.562-15.3l-15.3,9.562l9.562,15.3c-1.913,1.913-5.738,3.825-7.65,5.737l-9.562-13.387l-15.3,9.562l9.562,15.3
		c-1.913,1.913-5.737,3.825-7.65,5.738l-9.562-15.3l-15.3,9.562l11.475,17.212c-3.825,1.913-5.737,3.825-7.65,5.738l-11.475-17.212
		l-15.3,9.562l9.562,13.387c-1.913,0-3.825,0-5.737,0c-38.25,0-57.375,0-57.375,0C24.862,199.856,0,224.719,0,257.231
		c0,42.074,34.425,76.5,76.5,76.5h38.25v19.125h19.125v-19.125h38.25v19.125h19.125v-19.125h38.25v19.125h19.125v-19.125h38.25
		v19.125H306v-19.125h38.25v19.125h19.125v-19.125h38.25v19.125h19.125v-19.125h19.125c21.037,0,38.25-17.213,38.25-38.25
		C474.3,297.394,480.037,125.269,436.05,125.269z M263.925,144.394c1.912,0,3.825,0,5.737,3.825c0,0,5.737,5.737,5.737,7.65
		c15.301,17.212,32.513,24.862,63.113,24.862c28.688,0,45.899-7.65,65.024-22.95c0,0,1.913-1.913,3.825-3.825
		c9.562-7.65,15.3-11.475,26.775-11.475c0,0,1.912,3.825,5.737,13.388c1.912,1.913,1.912,3.825,1.912,3.825l0,0l0,0
		c0,0-5.737,1.913-5.737,3.825c-5.737,3.825-13.388,9.562-21.037,13.388c-24.863,13.387-53.551,22.95-86.062,22.95
		c-30.601,0-55.463-11.475-74.588-30.6c-5.737-5.737-15.3-19.125-15.3-19.125l-1.913-3.825
		C246.712,146.306,256.274,144.394,263.925,144.394z M110.925,220.894c5.737,0,11.475,0,17.212-1.913l7.65,13.387l15.3-9.562
		l-7.65-11.475c1.912-1.913,3.825-1.913,7.65-3.825c0,0,0,0,1.913,0l7.65,11.475l15.3-9.562l-7.65-15.3c0,0,0,0,1.913-1.913
		c0,0,3.825-1.913,7.65-5.737l7.65,13.387l15.3-9.562l-9.562-15.3c1.912-1.913,5.737-3.825,7.65-5.738l9.562,13.388l15.3-9.562
		l-9.562-13.388c1.913-1.912,3.825-1.912,5.738-3.825l0,0c0,0,11.475,17.212,21.037,26.775c22.95,22.95,51.638,36.337,87.976,36.337
		c34.425,0,66.938-9.562,95.625-24.862c7.649-3.825,19.125-11.475,21.037-13.388c1.912,9.562,3.825,19.125,3.825,30.6
		c1.912,15.3,1.912,30.6,1.912,45.9H336.6c-36.337,0-47.812,0-86.062,5.737c0-1.913-1.912-5.737-3.825-9.562
		c0-7.65-9.562-13.388-21.037-13.388H120.487c-13.388,0-21.038-5.737-24.862-13.388c0-1.912-1.913-3.825-1.913-5.737
		C97.537,220.894,103.275,220.894,110.925,220.894z M19.125,278.269c-1.913-5.737-3.825-11.475-3.825-19.125
		c0-21.037,17.212-38.25,38.25-38.25c0,0,0,0,3.825,0c7.65,0,11.475,0,15.3,0c1.913,5.737,3.825,11.475,5.737,13.388
		c7.65,15.3,21.038,24.862,42.075,24.862h105.188c3.825,0,7.65,1.912,7.65,3.825c1.912,1.912,1.912,3.825,1.912,5.737
		c-24.862,5.737-43.987,9.562-66.938,9.562H19.125z M455.175,293.568c0,1.913,0,3.825,0,3.825c0,11.475-9.562,19.125-19.125,19.125
		H72.675c-17.212,0-32.513-7.65-42.075-19.125h137.7c26.775,0,45.9-5.737,82.237-13.388c42.075-5.737,68.851-5.737,89.888-5.737
		h114.75C455.175,282.094,455.175,287.831,455.175,293.568z"/>
</g>
<g>
</g>
<g>
</g>
<g>
</g>
<g>
</g>
<g>
</g>
<g>
</g>
<g>
</g>
<g>
</g>
<g>
</g>
<g>
</g>
<g>
</g>
<g>
</g>
<g>
</g>
<g>
</g>
<g>
</g>
</svg>
